<svg fill="#fff" xmlns="http://www.w3.org/2000/svg" viewBox="0 0 150 150">
  <path d="m124 168m-80.39-31.76c-.768 0-1.535-.293-2.121-.878l-11.786-11.786-11.785 11.786c-1.172 1.171-3.07 1.171-4.242 0-1.172-1.171-1.172-3.071 0-4.242l11.785-11.786-11.785-11.785c-1.172-1.171-1.172-3.071 0-4.242 1.172-1.172 3.07-1.171 4.242 0l11.785 11.786 11.786-11.786c1.172-1.171 3.07-1.171 4.242 0 1.172 1.171 1.172 3.071 0 4.242l-11.785 11.785 11.785 11.786c1.172 1.171 1.172 3.071 0 4.242-.585.585-1.353.878-2.121.878m75.03 0h-.073c-1.657 0-3-1.343-3-3s1.343-3 3-3 3.037 1.343 3.037 3-1.307 3-2.964 3m15.989-13.907h-32.052c-1.657 0-3-1.343-3-3s1.343-3 3-3h32.052c1.657 0 3 1.343 3 3s-1.343 3-3 3m-15.958-13.906h-.136c-1.657 0-3-1.343-3-3s1.343-3 3-3h.136c1.657 0 3 1.343 3 3s-1.343 3-3 3m-88.968-58.76c-1.657 0-3-1.343-3-3v-13.334h-13.333c-1.657 0-3-1.343-3-3s1.343-3 3-3h13.333v-13.333c0-1.657 1.343-3 3-3s3 1.343 3 3v13.333h13.334c1.657 0 3 1.343 3 3s-1.343 3-3 3h-13.334v13.333c0 1.657-1.343 3.001-3 3.001m105.234-16.334h-32.667c-1.657 0-3-1.343-3-3s1.343-3 3-3h32.667c1.657 0 3 1.343 3 3s-1.343 3-3 3"/>
</svg>